<svg width="12" height="12" viewBox="0 0 12 12" fill="none" xmlns="http://www.w3.org/2000/svg">
<path fill-rule="evenodd" clip-rule="evenodd" d="M0.810067 1.09331C0.419543 1.48384 0.419543 2.117 0.810068 2.50753L4.34568 6.04314L0.810037 9.57878C0.419512 9.9693 0.419512 10.6025 0.810036 10.993L1.09288 11.2758C1.4834 11.6664 2.11657 11.6664 2.50709 11.2758L6.04273 7.74019L9.57819 11.2757C9.96872 11.6662 10.6019 11.6662 10.9924 11.2757L11.2752 10.9928C11.6658 10.6023 11.6658 9.96912 11.2752 9.5786L7.73979 6.04314L11.2752 2.50771C11.6657 2.11719 11.6657 1.48402 11.2752 1.0935L10.9924 0.810653C10.6018 0.420129 9.96868 0.420129 9.57816 0.810653L6.04273 4.34608L2.50712 0.810471C2.1166 0.419947 1.48343 0.419947 1.09291 0.810471L0.810067 1.09331Z" fill="#818C99"/>
</svg>
