<svg width="10" height="10" viewBox="0 0 10 10" fill="none" xmlns="http://www.w3.org/2000/svg">
<path fill-rule="evenodd" clip-rule="evenodd" d="M9.27823 0.792649C8.8877 0.402125 8.25454 0.402125 7.86401 0.792649L5.03531 3.62135L2.20686 0.792897C1.81633 0.402373 1.18317 0.402374 0.792642 0.792898C0.402117 1.18342 0.402117 1.81659 0.792641 2.20711L3.6211 5.03557L0.792944 7.86372C0.40242 8.25424 0.40242 8.88741 0.792945 9.27793C1.18347 9.66846 1.81663 9.66846 2.20716 9.27793L5.03531 6.44978L7.86371 9.27818C8.25424 9.66871 8.8874 9.66871 9.27793 9.27818C9.66845 8.88766 9.66845 8.25449 9.27793 7.86397L6.44952 5.03557L9.27823 2.20686C9.66875 1.81634 9.66875 1.18317 9.27823 0.792649Z" fill="#BF3B4B"/>
</svg>
