<svg width="20" height="20" viewBox="0 0 20 20" fill="none" xmlns="http://www.w3.org/2000/svg">
<path d="M0 9.99981C1.03454e-07 9.30945 0.559644 8.74981 1.25 8.74981L18.75 8.74981C19.4404 8.74981 20 9.30945 20 9.99981C20 10.6902 19.4404 11.2498 18.75 11.2498L1.25 11.2498C0.559644 11.2498 -1.03454e-07 10.6902 0 9.99981Z" fill="white"/>
<path d="M9.99975 0C10.6901 0 11.2497 0.559644 11.2497 1.25V18.75C11.2497 19.4404 10.6901 20 9.99975 20C9.30939 20 8.74975 19.4404 8.74975 18.75V1.25C8.74975 0.559643 9.30939 0 9.99975 0Z" fill="white"/>
</svg>
