<svg width="12" height="10" viewBox="0 0 12 10" fill="none" xmlns="http://www.w3.org/2000/svg">
<rect x="3" y="8" width="0.75" height="7.5" rx="0.375" transform="rotate(-180 3 8)" fill="#818C99"/>
<path d="M4.12971 6.67574C4.38599 6.44142 4.80151 6.44142 5.05779 6.67574C5.31407 6.91005 5.31407 7.28995 5.05779 7.52426L3.08904 9.32426C2.83276 9.55858 2.41724 9.55858 2.16096 9.32426L0.192211 7.52426C-0.0640704 7.28995 -0.0640704 6.91005 0.192211 6.67574C0.448493 6.44142 0.864007 6.44142 1.12029 6.67574L2.625 8.05147L4.12971 6.67574Z" fill="#818C99"/>
<rect width="0.75" height="7.5" rx="0.375" transform="matrix(-1 -1.19249e-08 -1.19249e-08 1 9.25 2)" fill="#818C99"/>
<path d="M10.3797 3.32426C10.636 3.55858 11.0515 3.55858 11.3078 3.32426C11.5641 3.08995 11.5641 2.71005 11.3078 2.47574L9.33904 0.675736C9.08276 0.441421 8.66724 0.441421 8.41096 0.675736L6.44221 2.47574C6.18593 2.71005 6.18593 3.08995 6.44221 3.32426C6.69849 3.55858 7.11401 3.55858 7.37029 3.32426L8.875 1.94853L10.3797 3.32426Z" fill="#818C99"/>
</svg>
